<svg xmlns="http://www.w3.org/2000/svg" viewBox="0 0 825 825">
<circle cx="412.5" cy="412.5" r="371.25" fill="#fff" stroke="#3c790a" stroke-width="82.5"/>
<path d="M249.10714 387.55814v48.92442c22.50001 0 40.17858 4.79651 53.03572 12.47093 14.46429 7.67442 22.49999 19.18605 27.32143 32.61628 4.82141 13.43024 6.42857 37.41279 6.42857 70.98837 0 33.57559 1.60714 55.63954 3.21429 66.19186 3.21429 17.26745 8.03571 30.69767 14.46429 40.2907 6.42856 10.55232 16.07141 18.22675 25.71427 23.98256 9.64285 5.75581 24.10714 10.55232 38.57145 14.38954 11.24999 1.9186 28.92856 3.8372 53.0357 3.8372H495v-47.00581h-12.85714c-28.92857 0-49.82142-3.83721-59.4643-11.51162-9.64285-7.67443-14.46426-23.98257-14.46426-50.84303 0-49.88372-1.60716-81.5407-3.2143-94.97094-4.82142-22.06395-12.85714-40.29069-27.32143-53.72092-14.46427-13.43024-33.75-23.98256-57.85713-30.69768 32.14285-10.55232 56.25-25.90116 69.10712-44.12791 12.85716-18.22674 19.28574-48.92442 19.28574-92.09302 0-39.33139 0-62.35465 1.60714-70.02907 1.60713-13.43023 8.03572-23.02326 16.07141-27.81977 9.64287-4.79651 27.32144-7.67442 54.64286-7.67442h12.85715V123.75h-24.10715c-27.32142 0-48.21427 1.91861-61.07141 4.79651-17.67858 4.79651-33.75001 11.51163-45 22.06396-11.25001 10.55232-19.28573 23.98256-22.50001 39.33139-3.21429 16.30814-4.82143 42.2093-6.42859 77.70349 0 36.45349-3.21427 61.39535-6.42855 74.82558-4.82144 13.43023-14.4643 24.94186-27.32144 32.61628-14.46427 7.67442-32.14286 12.47093-53.03571 12.47093z" fill="#3c790a"/>
</svg>
