<svg xmlns="http://www.w3.org/2000/svg" viewBox="0 0 100 100">
  <circle cx="50" cy="50" r="45" fill="#fff" stroke="#3c790a" stroke-width="10" />

  <!-- MAIN PIPE -->

  <!-- top line -->
  <rect x="8" y="29" width="40" height="3" fill="#3c790a" />

  <!-- top inner line -->
  <rect x="8" y="35" width="40" height="2" fill="#3c790a" />

  <!-- middle line, above large block -->
  <path d="m8,48.5 h40" stroke="#3c790a" />

  <!-- larger block on bottom half -->
  <rect x="8" y="51" width="40" height="12" fill="#3c790a" />

  <!-- half-tone shading above bottom line -->
  <path d="m8,63.5 h40" stroke="#3c790a" stroke-dasharray="1,1" />
  <path d="m9,64.5 h40" stroke="#3c790a" stroke-dasharray="1,1" />
  <path d="m8,65.5 h40" stroke="#3c790a" stroke-dasharray="1,1" />
  <path d="m9,66.5 h40" stroke="#3c790a" stroke-dasharray="1,1" />
  <path d="m8,67.5 h40" stroke="#3c790a" stroke-dasharray="1,1" />

  <!-- bottom line -->
  <rect x="8" y="68" width="40" height="3" fill="#3c790a" />

  <!-- CAP -->

  <!-- cap outline -->
  <path d="m49.5,26.5 h13 v47 h-13 z" stroke="#3c790a" stroke-width="3" fill="none" />

  <!-- top inner horizontal line; and vertical connector to top -->
  <rect x="51" y="33" width="9" height="2" fill="#3c790a" />
  <path d="m59.5,33 v-5" stroke="#3c790a" />

  <!-- middle horizontal line, above large block; and vertical connector to bottom -->
  <path d="m51,47.5 h9" stroke="#3c790a" />
  <path d="m59.5,48 v24" stroke="#3c790a" />

  <!-- larger block on bottom half -->
  <rect x="51" y="50" width="9" height="14" fill="#3c790a" />

  <!-- half-tone shading on bottom half -->
  <path d="m52,64.5 h7" stroke="#3c790a" stroke-dasharray="1,1" />
  <path d="m51,65.5 h7" stroke="#3c790a" stroke-dasharray="1,1" />
  <path d="m52,66.5 h7" stroke="#3c790a" stroke-dasharray="1,1" />
  <path d="m51,67.5 h7" stroke="#3c790a" stroke-dasharray="1,1" />
  <path d="m52,68.5 h7" stroke="#3c790a" stroke-dasharray="1,1" />
  <path d="m51,69.5 h7" stroke="#3c790a" stroke-dasharray="1,1" />
</svg>
