<svg viewBox="0 0 77 44" xmlns="http://www.w3.org/2000/svg" version="1.1">
  <path fill="#3A7908" d="m 60.5691,26.8506 -8.7993,8.8689 c -1.8794,1.8943 -1.8794,4.9655 0,6.8598 1.8794,1.8943 4.9265,1.8943 6.8059,0 L 75.59045,25.4299 C 76.53015,24.4827 77,23.2414 77,22 77,20.7586 76.53015,19.5173 75.59045,18.5701 L 58.5757,1.4207 c -1.8794,-1.894268 -4.9265,-1.894268 -6.8059,0 -1.8794,1.89428 -1.8794,4.9655 0,6.85977 l 8.7993,8.86893 -55.7566,0 C 2.1546,17.1494 0,19.3211 0,22 c 0,2.6789 2.1546,4.8506 4.8125,4.8506 l 55.7566,0 z"/>
</svg>
