<svg viewBox="0 0 101 101" xmlns="http://www.w3.org/2000/svg">
  <path fill="white" d="M85.356 14.645C78.363 7.652 69.454 2.89 59.756.96 50.055-.97 40 .023 30.865 3.807S13.92 14 8.426 22.22C2.933 30.445 0 40.11 0 50s2.932 19.556 8.427 27.78C13.92 86 21.73 92.41 30.867 96.193c9.135 3.784 19.19 4.775 28.888 2.845 9.7-1.93 18.608-6.692 25.6-13.685 4.664-4.632 8.365-10.14 10.89-16.207C98.77 63.08 100.07 56.572 100.07 50c0-6.572-1.3-13.08-3.825-19.148-2.525-6.067-6.226-11.576-10.89-16.207zm-5.53 65.18c-7.95 7.732-18.62 12.024-29.71 11.948-11.088-.077-21.7-4.516-29.542-12.356-7.84-7.84-12.28-18.454-12.356-29.542-.076-11.09 4.216-21.762 11.948-29.71 7.948-7.732 18.62-12.024 29.71-11.948 11.088.077 21.7 4.515 29.54 12.356 7.842 7.84 12.28 18.454 12.357 29.542.077 11.09-4.215 21.762-11.947 29.71z"/>
  <path fill="white" d="M 43.32,51.19 33.01,39.98 21.61,51.38 43.09,72.87 79.39,36.57 71.1,28.13 43.32,51.19 Z"/>
</svg>
