<svg viewBox="0 0 48 48" xmlns="http://www.w3.org/2000/svg" version="1.1">
  <path fill="white" d="M 46.57,32.78 C 45.47,32.41 44.46,31.817 43.6,31.04 42.74,30.262 42.05,29.316 41.57,28.26 45.73,25.77 48,22.18 48,18.06 48,8.66 38.75,4.38 30.16,4.38 c -7.38,0 -16,3.1 -17.95,9.85 C 4.24,16.37 0,21.78 0,26.95 c 0,4.11 2.27,7.71 6.42,10.21 -0.48,1.054 -1.17,2 -2.03,2.775 -0.86,0.775 -1.872,1.366 -2.97,1.735 -0.224,0.074 -0.415,0.224 -0.54,0.425 -0.123,0.2 -0.172,0.44 -0.138,0.672 0.035,0.234 0.15,0.447 0.328,0.603 0.177,0.157 0.404,0.245 0.64,0.25 l 0.36,0 c 1.58,0 8,-0.21 13.1,-3.38 1.543,0.257 3.105,0.387 4.67,0.39 7.52,0 13,-3 15.32,-8.06 3.42,1.408 7.08,2.142 10.78,2.16 l 0.34,0 c 0.236,-0.005 0.462,-0.094 0.64,-0.25 0.177,-0.156 0.293,-0.37 0.328,-0.603 0.034,-0.233 -0.015,-0.47 -0.14,-0.672 -0.123,-0.2 -0.314,-0.35 -0.538,-0.425 z m -26.74,5.85 c -1.576,-0.002 -3.15,-0.143 -4.7,-0.42 -0.25,-0.043 -0.508,0.01 -0.72,0.15 -2.607,1.6 -5.525,2.622 -8.56,3 C 7.08,40.176 8.03,38.73 8.63,37.13 8.717,36.903 8.72,36.65 8.634,36.423 8.55,36.195 8.384,36.005 8.17,35.89 5.35,34.34 2,31.56 2,26.95 2,18.89 12.43,15.27 19.83,15.27 c 7,0 14.48,3.07 14.48,11.68 0,8.61 -7.48,11.68 -14.48,11.68 z m 16,-8 c 0.326,-1.206 0.49,-2.45 0.49,-3.7 0,-8.31 -6.47,-13.68 -16.48,-13.68 -1.776,-0.002 -3.55,0.148 -5.3,0.45 2.25,-4.82 9.23,-7.34 15.62,-7.34 7.63,0.02 15.84,3.68 15.84,11.7 0,4.62 -3.35,7.39 -6.16,8.9 -0.215,0.115 -0.38,0.305 -0.464,0.533 -0.085,0.228 -0.083,0.48 0.004,0.707 0.597,1.604 1.547,3.053 2.78,4.24 -2.185,-0.303 -4.32,-0.905 -6.34,-1.79 l 0.01,-0.02 z M 13,27.5 c 0,0.396 -0.117,0.782 -0.337,1.11 -0.22,0.33 -0.532,0.586 -0.898,0.738 -0.365,0.15 -0.767,0.19 -1.155,0.114 C 10.222,29.384 9.865,29.194 9.586,28.914 9.306,28.634 9.116,28.278 9.038,27.89 8.961,27.502 9.001,27.1 9.152,26.735 9.304,26.369 9.56,26.057 9.889,25.837 c 0.328,-0.22 0.714,-0.337 1.11,-0.337 0.53,0 1.04,0.21 1.414,0.586 0.375,0.375 0.586,0.884 0.586,1.414 z m 7,0 c 0,0.396 -0.117,0.782 -0.337,1.11 -0.22,0.33 -0.532,0.586 -0.898,0.738 -0.365,0.15 -0.767,0.19 -1.155,0.114 -0.388,-0.078 -0.744,-0.268 -1.024,-0.548 -0.28,-0.28 -0.47,-0.636 -0.548,-1.024 -0.077,-0.388 -0.037,-0.79 0.114,-1.155 0.152,-0.366 0.408,-0.678 0.737,-0.898 0.328,-0.22 0.714,-0.337 1.11,-0.337 0.53,0 1.04,0.21 1.414,0.586 0.375,0.375 0.586,0.884 0.586,1.414 z m 7,0 c 0,0.396 -0.117,0.782 -0.337,1.11 -0.22,0.33 -0.532,0.586 -0.898,0.738 -0.365,0.15 -0.767,0.19 -1.155,0.114 -0.388,-0.078 -0.744,-0.268 -1.024,-0.548 -0.28,-0.28 -0.47,-0.636 -0.548,-1.024 -0.077,-0.388 -0.037,-0.79 0.114,-1.155 0.152,-0.366 0.408,-0.678 0.737,-0.898 0.328,-0.22 0.714,-0.337 1.11,-0.337 0.53,0 1.04,0.21 1.414,0.586 0.375,0.375 0.586,0.884 0.586,1.414 z"/>
</svg>
